# xmcd CD database file
#
# Track frame offsets:
#	182
#	39835
#	79050
#	122980
#	170730
#	195017
#	228830
#	263207
#	309165
#
# Disc length: 4602 seconds
#
# Revision: 1
# Processed by: cddbd v1.4PL0 Copyright (c) Steve Scherf et al.
# Submitted via: CDex 1.50
#
DISCID=6411f809
DTITLE=Johnny Winter - Whole lotta love
DYEAR=1900
DGENRE=Blues
TTITLE0=Warmup Blues
TTITLE1=Divin duck
TTITLE2=Goin back to the delta
TTITLE3=Dust my Blues
TTITLE4=Rollin and Tumblin
TTITLE5=Leavin Blues
TTITLE6=Come on in my kitchen
TTITLE7=Roll over Beethoven
TTITLE8=Wipe out
EXTD=
EXTT0=
EXTT1=
EXTT2=
EXTT3=
EXTT4=
EXTT5=
EXTT6=
EXTT7=
EXTT8=
PLAYORDER=
